<?xml version="1.0" encoding="UTF-8"?>
<!-- Do not edit this file with editors other than draw.io -->
<!DOCTYPE svg PUBLIC "-//W3C//DTD SVG 1.1//EN" "http://www.w3.org/Graphics/SVG/1.1/DTD/svg11.dtd">
<svg xmlns="http://www.w3.org/2000/svg" style="background: transparent; background-color: transparent; color-scheme: light dark;" xmlns:xlink="http://www.w3.org/1999/xlink" version="1.1" width="701px" height="591px" viewBox="0 0 701 591" content="&lt;mxfile host=&quot;app.diagrams.net&quot;&gt;&#xA;  &lt;diagram name=&quot;Page-1&quot; id=&quot;naFrk8TRscyaPpA3T9ek&quot;&gt;&#xA;    &lt;mxGraphModel dx=&quot;1414&quot; dy=&quot;1927&quot; grid=&quot;1&quot; gridSize=&quot;10&quot; guides=&quot;1&quot; tooltips=&quot;1&quot; connect=&quot;1&quot; arrows=&quot;1&quot; fold=&quot;1&quot; page=&quot;1&quot; pageScale=&quot;1&quot; pageWidth=&quot;850&quot; pageHeight=&quot;1100&quot; math=&quot;0&quot; shadow=&quot;0&quot;&gt;&#xA;      &lt;root&gt;&#xA;        &lt;mxCell id=&quot;0&quot; /&gt;&#xA;        &lt;mxCell id=&quot;1&quot; parent=&quot;0&quot; /&gt;&#xA;        &lt;mxCell id=&quot;ePXKWvj2PJpGyOa-WNo2-7&quot; parent=&quot;1&quot; style=&quot;rounded=0;whiteSpace=wrap;html=1;&quot; value=&quot;nuc15 pro&amp;lt;br&amp;gt;&amp;lt;br&amp;gt;CPU 16p / 20v&amp;lt;br&amp;gt;RAM: 64 GB&quot; vertex=&quot;1&quot;&gt;&#xA;          &lt;mxGeometry height=&quot;90&quot; width=&quot;540&quot; x=&quot;170&quot; y=&quot;490&quot; as=&quot;geometry&quot; /&gt;&#xA;        &lt;/mxCell&gt;&#xA;        &lt;mxCell id=&quot;ePXKWvj2PJpGyOa-WNo2-3&quot; parent=&quot;1&quot; style=&quot;image;html=1;image=img/lib/clip_art/networking/Print_Server_128x128.png&quot; value=&quot;&quot; vertex=&quot;1&quot;&gt;&#xA;          &lt;mxGeometry height=&quot;50&quot; width=&quot;150&quot; x=&quot;160&quot; y=&quot;490&quot; as=&quot;geometry&quot; /&gt;&#xA;        &lt;/mxCell&gt;&#xA;        &lt;mxCell id=&quot;ePXKWvj2PJpGyOa-WNo2-4&quot; parent=&quot;1&quot; style=&quot;rounded=0;whiteSpace=wrap;html=1;&quot; value=&quot;Proxmox virtual environment&quot; vertex=&quot;1&quot;&gt;&#xA;          &lt;mxGeometry height=&quot;60&quot; width=&quot;540&quot; x=&quot;170&quot; y=&quot;430&quot; as=&quot;geometry&quot; /&gt;&#xA;        &lt;/mxCell&gt;&#xA;        &lt;mxCell id=&quot;ePXKWvj2PJpGyOa-WNo2-8&quot; parent=&quot;1&quot; style=&quot;swimlane;whiteSpace=wrap;html=1;&quot; value=&quot;openshift - compact cluster&quot; vertex=&quot;1&quot;&gt;&#xA;          &lt;mxGeometry height=&quot;280&quot; width=&quot;380&quot; x=&quot;170&quot; y=&quot;150&quot; as=&quot;geometry&quot;&gt;&#xA;            &lt;mxRectangle height=&quot;30&quot; width=&quot;90&quot; x=&quot;170&quot; y=&quot;150&quot; as=&quot;alternateBounds&quot; /&gt;&#xA;          &lt;/mxGeometry&gt;&#xA;        &lt;/mxCell&gt;&#xA;        &lt;mxCell id=&quot;ePXKWvj2PJpGyOa-WNo2-12&quot; parent=&quot;ePXKWvj2PJpGyOa-WNo2-8&quot; style=&quot;swimlane;whiteSpace=wrap;html=1;&quot; value=&quot;master0&quot; vertex=&quot;1&quot;&gt;&#xA;          &lt;mxGeometry height=&quot;180&quot; width=&quot;100&quot; x=&quot;20&quot; y=&quot;50&quot; as=&quot;geometry&quot; /&gt;&#xA;        &lt;/mxCell&gt;&#xA;        &lt;mxCell id=&quot;ePXKWvj2PJpGyOa-WNo2-15&quot; parent=&quot;ePXKWvj2PJpGyOa-WNo2-8&quot; style=&quot;swimlane;whiteSpace=wrap;html=1;&quot; value=&quot;master1&quot; vertex=&quot;1&quot;&gt;&#xA;          &lt;mxGeometry height=&quot;180&quot; width=&quot;100&quot; x=&quot;140&quot; y=&quot;50&quot; as=&quot;geometry&quot; /&gt;&#xA;        &lt;/mxCell&gt;&#xA;        &lt;mxCell id=&quot;ePXKWvj2PJpGyOa-WNo2-16&quot; parent=&quot;ePXKWvj2PJpGyOa-WNo2-8&quot; style=&quot;swimlane;whiteSpace=wrap;html=1;&quot; value=&quot;master2&quot; vertex=&quot;1&quot;&gt;&#xA;          &lt;mxGeometry height=&quot;180&quot; width=&quot;100&quot; x=&quot;260&quot; y=&quot;50&quot; as=&quot;geometry&quot; /&gt;&#xA;        &lt;/mxCell&gt;&#xA;        &lt;mxCell id=&quot;ePXKWvj2PJpGyOa-WNo2-25&quot; parent=&quot;ePXKWvj2PJpGyOa-WNo2-8&quot; style=&quot;text;html=1;whiteSpace=wrap;strokeColor=none;fillColor=none;align=center;verticalAlign=middle;rounded=0;&quot; value=&quot;6 vCPU&amp;lt;br&amp;gt;16 GB RAM&quot; vertex=&quot;1&quot;&gt;&#xA;          &lt;mxGeometry height=&quot;30&quot; width=&quot;70&quot; x=&quot;40&quot; y=&quot;230&quot; as=&quot;geometry&quot; /&gt;&#xA;        &lt;/mxCell&gt;&#xA;        &lt;mxCell id=&quot;ePXKWvj2PJpGyOa-WNo2-26&quot; parent=&quot;ePXKWvj2PJpGyOa-WNo2-8&quot; style=&quot;text;html=1;whiteSpace=wrap;strokeColor=none;fillColor=none;align=center;verticalAlign=middle;rounded=0;&quot; value=&quot;6 vCPU&amp;lt;br&amp;gt;16 GB RAM&quot; vertex=&quot;1&quot;&gt;&#xA;          &lt;mxGeometry height=&quot;30&quot; width=&quot;70&quot; x=&quot;155&quot; y=&quot;230&quot; as=&quot;geometry&quot; /&gt;&#xA;        &lt;/mxCell&gt;&#xA;        &lt;mxCell id=&quot;ePXKWvj2PJpGyOa-WNo2-27&quot; parent=&quot;ePXKWvj2PJpGyOa-WNo2-8&quot; style=&quot;text;html=1;whiteSpace=wrap;strokeColor=none;fillColor=none;align=center;verticalAlign=middle;rounded=0;&quot; value=&quot;6 vCPU&amp;lt;br&amp;gt;16 GB RAM&quot; vertex=&quot;1&quot;&gt;&#xA;          &lt;mxGeometry height=&quot;30&quot; width=&quot;70&quot; x=&quot;275&quot; y=&quot;230&quot; as=&quot;geometry&quot; /&gt;&#xA;        &lt;/mxCell&gt;&#xA;        &lt;mxCell id=&quot;ePXKWvj2PJpGyOa-WNo2-17&quot; parent=&quot;1&quot; style=&quot;ellipse;shape=cloud;whiteSpace=wrap;html=1;&quot; value=&quot;Compact cluster&amp;lt;br&amp;gt;means just 3 nodes where:&amp;lt;br&amp;gt;masters=workers&quot; vertex=&quot;1&quot;&gt;&#xA;          &lt;mxGeometry height=&quot;140&quot; width=&quot;190&quot; x=&quot;10&quot; y=&quot;-10&quot; as=&quot;geometry&quot; /&gt;&#xA;        &lt;/mxCell&gt;&#xA;        &lt;mxCell id=&quot;ePXKWvj2PJpGyOa-WNo2-18&quot; edge=&quot;1&quot; parent=&quot;1&quot; source=&quot;ePXKWvj2PJpGyOa-WNo2-17&quot; style=&quot;endArrow=none;dashed=1;html=1;dashPattern=1 3;strokeWidth=2;rounded=0;exitX=0.8;exitY=0.8;exitDx=0;exitDy=0;exitPerimeter=0;entryX=0.589;entryY=-0.004;entryDx=0;entryDy=0;entryPerimeter=0;&quot; target=&quot;ePXKWvj2PJpGyOa-WNo2-8&quot; value=&quot;&quot;&gt;&#xA;          &lt;mxGeometry height=&quot;50&quot; relative=&quot;1&quot; width=&quot;50&quot; as=&quot;geometry&quot;&gt;&#xA;            &lt;mxPoint x=&quot;400&quot; y=&quot;460&quot; as=&quot;sourcePoint&quot; /&gt;&#xA;            &lt;mxPoint x=&quot;450&quot; y=&quot;410&quot; as=&quot;targetPoint&quot; /&gt;&#xA;          &lt;/mxGeometry&gt;&#xA;        &lt;/mxCell&gt;&#xA;        &lt;mxCell id=&quot;ePXKWvj2PJpGyOa-WNo2-19&quot; parent=&quot;1&quot; style=&quot;rounded=0;whiteSpace=wrap;html=1;&quot; value=&quot;&quot; vertex=&quot;1&quot;&gt;&#xA;          &lt;mxGeometry height=&quot;280&quot; width=&quot;160&quot; x=&quot;550&quot; y=&quot;150&quot; as=&quot;geometry&quot; /&gt;&#xA;        &lt;/mxCell&gt;&#xA;        &lt;mxCell id=&quot;ePXKWvj2PJpGyOa-WNo2-20&quot; parent=&quot;1&quot; style=&quot;sketch=0;points=[[0.015,0.015,0],[0.985,0.015,0],[0.985,0.985,0],[0.015,0.985,0],[0.25,0,0],[0.5,0,0],[0.75,0,0],[1,0.25,0],[1,0.5,0],[1,0.75,0],[0.75,1,0],[0.5,1,0],[0.25,1,0],[0,0.75,0],[0,0.5,0],[0,0.25,0]];verticalLabelPosition=bottom;html=1;verticalAlign=top;aspect=fixed;align=center;pointerEvents=1;shape=mxgraph.cisco19.dns_server2;fillColor=#fafafa;strokeColor=#005073;&quot; value=&quot;&quot; vertex=&quot;1&quot;&gt;&#xA;          &lt;mxGeometry height=&quot;50&quot; width=&quot;27.500000000000004&quot; x=&quot;560&quot; y=&quot;435&quot; as=&quot;geometry&quot; /&gt;&#xA;        &lt;/mxCell&gt;&#xA;        &lt;mxCell id=&quot;ePXKWvj2PJpGyOa-WNo2-28&quot; parent=&quot;1&quot; style=&quot;swimlane;whiteSpace=wrap;html=1;&quot; value=&quot;bastion&quot; vertex=&quot;1&quot;&gt;&#xA;          &lt;mxGeometry height=&quot;140&quot; width=&quot;95&quot; x=&quot;575&quot; y=&quot;210&quot; as=&quot;geometry&quot; /&gt;&#xA;        &lt;/mxCell&gt;&#xA;      &lt;/root&gt;&#xA;    &lt;/mxGraphModel&gt;&#xA;  &lt;/diagram&gt;&#xA;&lt;/mxfile&gt;&#xA;"><defs/><g><g data-cell-id="0"><g data-cell-id="1"><g data-cell-id="ePXKWvj2PJpGyOa-WNo2-7"><g transform="translate(0.5,0.5)"><rect x="160" y="500" width="540" height="90" fill="#ffffff" style="fill: light-dark(#ffffff, var(--ge-dark-color, #121212)); stroke: light-dark(rgb(0, 0, 0), rgb(255, 255, 255));" stroke="#000000" pointer-events="all"/></g><g><g><switch><foreignObject style="overflow: visible; text-align: left;" pointer-events="none" width="100%" height="100%" requiredFeatures="http://www.w3.org/TR/SVG11/feature#Extensibility"><div xmlns="http://www.w3.org/1999/xhtml" style="display: flex; align-items: unsafe center; justify-content: unsafe center; width: 538px; height: 1px; padding-top: 545px; margin-left: 161px;"><div style="box-sizing: border-box; font-size: 0; text-align: center; color: #000000; "><div style="display: inline-block; font-size: 12px; font-family: Helvetica; color: light-dark(#000000, #ffffff); line-height: 1.2; pointer-events: all; white-space: normal; word-wrap: normal; ">nuc15 pro<br /><br />CPU 16p / 20v<br />RAM: 64 GB</div></div></div></foreignObject><text x="430" y="549" fill="light-dark(#000000, #ffffff)" font-family="Helvetica" font-size="12px" text-anchor="middle">nuc15 pro...</text></switch></g></g></g><g data-cell-id="ePXKWvj2PJpGyOa-WNo2-3"><g><image x="150" y="500" width="150" height="50" xlink:href="nuc-ocp.drawio_files/Print_Server_128x128.png"/></g></g><g data-cell-id="ePXKWvj2PJpGyOa-WNo2-4"><g transform="translate(0.5,0.5)"><rect x="160" y="440" width="540" height="60" fill="#ffffff" style="fill: light-dark(#ffffff, var(--ge-dark-color, #121212)); stroke: light-dark(rgb(0, 0, 0), rgb(255, 255, 255));" stroke="#000000" pointer-events="all"/></g><g><g><switch><foreignObject style="overflow: visible; text-align: left;" pointer-events="none" width="100%" height="100%" requiredFeatures="http://www.w3.org/TR/SVG11/feature#Extensibility"><div xmlns="http://www.w3.org/1999/xhtml" style="display: flex; align-items: unsafe center; justify-content: unsafe center; width: 538px; height: 1px; padding-top: 470px; margin-left: 161px;"><div style="box-sizing: border-box; font-size: 0; text-align: center; color: #000000; "><div style="display: inline-block; font-size: 12px; font-family: Helvetica; color: light-dark(#000000, #ffffff); line-height: 1.2; pointer-events: all; white-space: normal; word-wrap: normal; ">Proxmox virtual environment</div></div></div></foreignObject><text x="430" y="474" fill="light-dark(#000000, #ffffff)" font-family="Helvetica" font-size="12px" text-anchor="middle">Proxmox virtual environment</text></switch></g></g></g><g data-cell-id="ePXKWvj2PJpGyOa-WNo2-8"><g transform="translate(0.5,0.5)"><path d="M 160 183 L 160 160 L 540 160 L 540 183" fill="#ffffff" style="fill: light-dark(#ffffff, var(--ge-dark-color, #121212)); stroke: light-dark(rgb(0, 0, 0), rgb(255, 255, 255));" stroke="#000000" stroke-miterlimit="10" pointer-events="all"/><path d="M 160 183 L 160 440 L 540 440 L 540 183" fill="none" stroke="#000000" style="stroke: light-dark(rgb(0, 0, 0), rgb(255, 255, 255));" stroke-miterlimit="10" pointer-events="none"/><path d="M 160 183 L 540 183" fill="none" stroke="#000000" style="stroke: light-dark(rgb(0, 0, 0), rgb(255, 255, 255));" stroke-miterlimit="10" pointer-events="none"/></g><g><g><switch><foreignObject style="overflow: visible; text-align: left;" pointer-events="none" width="100%" height="100%" requiredFeatures="http://www.w3.org/TR/SVG11/feature#Extensibility"><div xmlns="http://www.w3.org/1999/xhtml" style="display: flex; align-items: unsafe center; justify-content: unsafe center; width: 378px; height: 1px; padding-top: 172px; margin-left: 161px;"><div style="box-sizing: border-box; font-size: 0; text-align: center; color: #000000; "><div style="display: inline-block; font-size: 12px; font-family: Helvetica; color: light-dark(#000000, #ffffff); line-height: 1.2; pointer-events: all; font-weight: bold; white-space: normal; word-wrap: normal; ">openshift - compact cluster</div></div></div></foreignObject><text x="350" y="175" fill="light-dark(#000000, #ffffff)" font-family="Helvetica" font-size="12px" text-anchor="middle" font-weight="bold">openshift - compact cluster</text></switch></g></g><g data-cell-id="ePXKWvj2PJpGyOa-WNo2-12"><g transform="translate(0.5,0.5)"><path d="M 180 233 L 180 210 L 280 210 L 280 233" fill="#ffffff" style="fill: light-dark(#ffffff, var(--ge-dark-color, #121212)); stroke: light-dark(rgb(0, 0, 0), rgb(255, 255, 255));" stroke="#000000" stroke-miterlimit="10" pointer-events="all"/><path d="M 180 233 L 180 390 L 280 390 L 280 233" fill="none" stroke="#000000" style="stroke: light-dark(rgb(0, 0, 0), rgb(255, 255, 255));" stroke-miterlimit="10" pointer-events="none"/><path d="M 180 233 L 280 233" fill="none" stroke="#000000" style="stroke: light-dark(rgb(0, 0, 0), rgb(255, 255, 255));" stroke-miterlimit="10" pointer-events="none"/></g><g><g><switch><foreignObject style="overflow: visible; text-align: left;" pointer-events="none" width="100%" height="100%" requiredFeatures="http://www.w3.org/TR/SVG11/feature#Extensibility"><div xmlns="http://www.w3.org/1999/xhtml" style="display: flex; align-items: unsafe center; justify-content: unsafe center; width: 98px; height: 1px; padding-top: 222px; margin-left: 181px;"><div style="box-sizing: border-box; font-size: 0; text-align: center; color: #000000; "><div style="display: inline-block; font-size: 12px; font-family: Helvetica; color: light-dark(#000000, #ffffff); line-height: 1.2; pointer-events: all; font-weight: bold; white-space: normal; word-wrap: normal; ">master0</div></div></div></foreignObject><text x="230" y="225" fill="light-dark(#000000, #ffffff)" font-family="Helvetica" font-size="12px" text-anchor="middle" font-weight="bold">master0</text></switch></g></g></g><g data-cell-id="ePXKWvj2PJpGyOa-WNo2-15"><g transform="translate(0.5,0.5)"><path d="M 300 233 L 300 210 L 400 210 L 400 233" fill="#ffffff" style="fill: light-dark(#ffffff, var(--ge-dark-color, #121212)); stroke: light-dark(rgb(0, 0, 0), rgb(255, 255, 255));" stroke="#000000" stroke-miterlimit="10" pointer-events="all"/><path d="M 300 233 L 300 390 L 400 390 L 400 233" fill="none" stroke="#000000" style="stroke: light-dark(rgb(0, 0, 0), rgb(255, 255, 255));" stroke-miterlimit="10" pointer-events="none"/><path d="M 300 233 L 400 233" fill="none" stroke="#000000" style="stroke: light-dark(rgb(0, 0, 0), rgb(255, 255, 255));" stroke-miterlimit="10" pointer-events="none"/></g><g><g><switch><foreignObject style="overflow: visible; text-align: left;" pointer-events="none" width="100%" height="100%" requiredFeatures="http://www.w3.org/TR/SVG11/feature#Extensibility"><div xmlns="http://www.w3.org/1999/xhtml" style="display: flex; align-items: unsafe center; justify-content: unsafe center; width: 98px; height: 1px; padding-top: 222px; margin-left: 301px;"><div style="box-sizing: border-box; font-size: 0; text-align: center; color: #000000; "><div style="display: inline-block; font-size: 12px; font-family: Helvetica; color: light-dark(#000000, #ffffff); line-height: 1.2; pointer-events: all; font-weight: bold; white-space: normal; word-wrap: normal; ">master1</div></div></div></foreignObject><text x="350" y="225" fill="light-dark(#000000, #ffffff)" font-family="Helvetica" font-size="12px" text-anchor="middle" font-weight="bold">master1</text></switch></g></g></g><g data-cell-id="ePXKWvj2PJpGyOa-WNo2-16"><g transform="translate(0.5,0.5)"><path d="M 420 233 L 420 210 L 520 210 L 520 233" fill="#ffffff" style="fill: light-dark(#ffffff, var(--ge-dark-color, #121212)); stroke: light-dark(rgb(0, 0, 0), rgb(255, 255, 255));" stroke="#000000" stroke-miterlimit="10" pointer-events="all"/><path d="M 420 233 L 420 390 L 520 390 L 520 233" fill="none" stroke="#000000" style="stroke: light-dark(rgb(0, 0, 0), rgb(255, 255, 255));" stroke-miterlimit="10" pointer-events="none"/><path d="M 420 233 L 520 233" fill="none" stroke="#000000" style="stroke: light-dark(rgb(0, 0, 0), rgb(255, 255, 255));" stroke-miterlimit="10" pointer-events="none"/></g><g><g><switch><foreignObject style="overflow: visible; text-align: left;" pointer-events="none" width="100%" height="100%" requiredFeatures="http://www.w3.org/TR/SVG11/feature#Extensibility"><div xmlns="http://www.w3.org/1999/xhtml" style="display: flex; align-items: unsafe center; justify-content: unsafe center; width: 98px; height: 1px; padding-top: 222px; margin-left: 421px;"><div style="box-sizing: border-box; font-size: 0; text-align: center; color: #000000; "><div style="display: inline-block; font-size: 12px; font-family: Helvetica; color: light-dark(#000000, #ffffff); line-height: 1.2; pointer-events: all; font-weight: bold; white-space: normal; word-wrap: normal; ">master2</div></div></div></foreignObject><text x="470" y="225" fill="light-dark(#000000, #ffffff)" font-family="Helvetica" font-size="12px" text-anchor="middle" font-weight="bold">master2</text></switch></g></g></g><g data-cell-id="ePXKWvj2PJpGyOa-WNo2-25"><g transform="translate(0.5,0.5)"><rect x="200" y="390" width="70" height="30" fill="none" stroke="none" pointer-events="all"/></g><g><g><switch><foreignObject style="overflow: visible; text-align: left;" pointer-events="none" width="100%" height="100%" requiredFeatures="http://www.w3.org/TR/SVG11/feature#Extensibility"><div xmlns="http://www.w3.org/1999/xhtml" style="display: flex; align-items: unsafe center; justify-content: unsafe center; width: 68px; height: 1px; padding-top: 405px; margin-left: 201px;"><div style="box-sizing: border-box; font-size: 0; text-align: center; color: #000000; "><div style="display: inline-block; font-size: 12px; font-family: Helvetica; color: light-dark(#000000, #ffffff); line-height: 1.2; pointer-events: all; white-space: normal; word-wrap: normal; ">6 vCPU<br />16 GB RAM</div></div></div></foreignObject><text x="235" y="409" fill="light-dark(#000000, #ffffff)" font-family="Helvetica" font-size="12px" text-anchor="middle">6 vCPU...</text></switch></g></g></g><g data-cell-id="ePXKWvj2PJpGyOa-WNo2-26"><g transform="translate(0.5,0.5)"><rect x="315" y="390" width="70" height="30" fill="none" stroke="none" pointer-events="all"/></g><g><g><switch><foreignObject style="overflow: visible; text-align: left;" pointer-events="none" width="100%" height="100%" requiredFeatures="http://www.w3.org/TR/SVG11/feature#Extensibility"><div xmlns="http://www.w3.org/1999/xhtml" style="display: flex; align-items: unsafe center; justify-content: unsafe center; width: 68px; height: 1px; padding-top: 405px; margin-left: 316px;"><div style="box-sizing: border-box; font-size: 0; text-align: center; color: #000000; "><div style="display: inline-block; font-size: 12px; font-family: Helvetica; color: light-dark(#000000, #ffffff); line-height: 1.2; pointer-events: all; white-space: normal; word-wrap: normal; ">6 vCPU<br />16 GB RAM</div></div></div></foreignObject><text x="350" y="409" fill="light-dark(#000000, #ffffff)" font-family="Helvetica" font-size="12px" text-anchor="middle">6 vCPU...</text></switch></g></g></g><g data-cell-id="ePXKWvj2PJpGyOa-WNo2-27"><g transform="translate(0.5,0.5)"><rect x="435" y="390" width="70" height="30" fill="none" stroke="none" pointer-events="all"/></g><g><g><switch><foreignObject style="overflow: visible; text-align: left;" pointer-events="none" width="100%" height="100%" requiredFeatures="http://www.w3.org/TR/SVG11/feature#Extensibility"><div xmlns="http://www.w3.org/1999/xhtml" style="display: flex; align-items: unsafe center; justify-content: unsafe center; width: 68px; height: 1px; padding-top: 405px; margin-left: 436px;"><div style="box-sizing: border-box; font-size: 0; text-align: center; color: #000000; "><div style="display: inline-block; font-size: 12px; font-family: Helvetica; color: light-dark(#000000, #ffffff); line-height: 1.2; pointer-events: all; white-space: normal; word-wrap: normal; ">6 vCPU<br />16 GB RAM</div></div></div></foreignObject><text x="470" y="409" fill="light-dark(#000000, #ffffff)" font-family="Helvetica" font-size="12px" text-anchor="middle">6 vCPU...</text></switch></g></g></g></g><g data-cell-id="ePXKWvj2PJpGyOa-WNo2-17"><g transform="translate(0.5,0.5)"><path d="M 47.5 35 C 9.5 35 0 70 30.4 77 C 0 92.4 34.2 126 58.9 112 C 76 140 133 140 152 112 C 190 112 190 84 166.25 70 C 190 42 152 14 118.75 28 C 95 7 57 7 47.5 35 Z" fill="#ffffff" style="fill: light-dark(#ffffff, var(--ge-dark-color, #121212)); stroke: light-dark(rgb(0, 0, 0), rgb(255, 255, 255));" stroke="#000000" stroke-miterlimit="10" pointer-events="all"/></g><g><g><switch><foreignObject style="overflow: visible; text-align: left;" pointer-events="none" width="100%" height="100%" requiredFeatures="http://www.w3.org/TR/SVG11/feature#Extensibility"><div xmlns="http://www.w3.org/1999/xhtml" style="display: flex; align-items: unsafe center; justify-content: unsafe center; width: 188px; height: 1px; padding-top: 70px; margin-left: 1px;"><div style="box-sizing: border-box; font-size: 0; text-align: center; color: #000000; "><div style="display: inline-block; font-size: 12px; font-family: Helvetica; color: light-dark(#000000, #ffffff); line-height: 1.2; pointer-events: all; white-space: normal; word-wrap: normal; ">Compact cluster<br />means just 3 nodes where:<br />masters=workers</div></div></div></foreignObject><text x="95" y="74" fill="light-dark(#000000, #ffffff)" font-family="Helvetica" font-size="12px" text-anchor="middle">Compact cluster...</text></switch></g></g></g><g data-cell-id="ePXKWvj2PJpGyOa-WNo2-18"><g><path d="M 152 112 L 383.82 158.88" fill="none" stroke="#000000" style="stroke: light-dark(rgb(0, 0, 0), rgb(255, 255, 255));" stroke-width="2" stroke-miterlimit="10" stroke-dasharray="2 6" pointer-events="stroke"/></g></g><g data-cell-id="ePXKWvj2PJpGyOa-WNo2-19"><g transform="translate(0.5,0.5)"><rect x="540" y="160" width="160" height="280" fill="#ffffff" style="fill: light-dark(#ffffff, var(--ge-dark-color, #121212)); stroke: light-dark(rgb(0, 0, 0), rgb(255, 255, 255));" stroke="#000000" pointer-events="all"/></g></g><g data-cell-id="ePXKWvj2PJpGyOa-WNo2-20"><g transform="translate(0.5,0.5)"><rect x="550" y="445" width="27.5" height="50" fill="none" stroke="none" pointer-events="all"/><path d="M 551.27 459.83 L 551.27 476.98 L 576.23 476.98 L 576.23 459.83 L 551.27 459.83 Z" fill="#fafafa" style="fill: light-dark(rgb(250, 250, 250), rgb(22, 22, 22));" stroke="none" pointer-events="all"/><path d="M 574.49 446.3 L 552.98 446.3 C 552.02 446.3 551.27 447.07 551.27 448.05 L 551.27 456.21 L 576.23 456.21 L 576.23 448.05 C 576.23 447.07 575.44 446.3 574.49 446.3 L 574.49 446.3 Z" fill="#fafafa" style="fill: light-dark(rgb(250, 250, 250), rgb(22, 22, 22));" stroke="none" pointer-events="all"/><rect x="550" y="445" width="0" height="0" fill="none" stroke="#005073" style="stroke: light-dark(rgb(0, 80, 115), rgb(124, 193, 223));" pointer-events="all"/><path d="M 572.7 451.6 C 572.53 451.31 572.3 451.09 571.99 450.93 C 571.69 450.77 571.23 450.61 570.6 450.45 C 569.97 450.3 569.57 450.15 569.41 450.01 C 569.28 449.9 569.21 449.77 569.21 449.61 C 569.21 449.44 569.28 449.31 569.42 449.21 C 569.63 449.05 569.93 448.97 570.3 448.97 C 570.68 448.97 570.94 449.04 571.12 449.19 C 571.31 449.34 571.43 449.58 571.48 449.92 L 572.78 449.86 C 572.76 449.26 572.54 448.77 572.13 448.41 C 571.73 448.05 571.12 447.87 570.32 447.87 C 569.82 447.87 569.4 447.94 569.05 448.1 C 568.7 448.25 568.44 448.47 568.25 448.77 C 568.06 449.06 567.97 449.37 567.97 449.7 C 567.97 450.23 568.17 450.67 568.56 451.03 C 568.84 451.29 569.33 451.5 570.03 451.68 C 570.57 451.82 570.91 451.91 571.07 451.97 C 571.29 452.05 571.44 452.14 571.53 452.25 C 571.62 452.36 571.67 452.49 571.67 452.65 C 571.67 452.89 571.56 453.1 571.35 453.29 C 571.14 453.47 570.82 453.56 570.4 453.56 C 570.01 453.56 569.7 453.45 569.46 453.25 C 569.23 453.05 569.08 452.73 569 452.3 L 567.74 452.42 C 567.83 453.16 568.09 453.72 568.52 454.1 C 568.96 454.49 569.58 454.68 570.39 454.68 C 570.95 454.68 571.41 454.6 571.79 454.44 C 572.16 454.28 572.45 454.03 572.66 453.7 C 572.86 453.38 572.96 453.02 572.96 452.65 C 572.96 452.23 572.88 451.88 572.7 451.6 L 572.7 451.6 Z M 565.49 447.98 L 565.49 452.38 L 562.86 447.98 L 561.6 447.98 L 561.6 454.56 L 562.8 454.56 L 562.8 450.27 L 565.39 454.56 L 566.69 454.56 L 566.69 447.98 L 565.49 447.98 L 565.49 447.98 Z M 560.27 449.78 C 560.13 449.36 559.93 449 559.66 448.71 C 559.39 448.42 559.07 448.22 558.69 448.11 C 558.41 448.02 558 447.98 557.47 447.98 L 555.1 447.98 L 555.1 454.56 L 557.54 454.56 C 558.02 454.56 558.4 454.52 558.69 454.42 C 559.07 454.3 559.37 454.12 559.6 453.9 C 559.9 453.6 560.13 453.21 560.29 452.73 C 560.42 452.34 560.48 451.88 560.48 451.33 C 560.48 450.72 560.41 450.2 560.27 449.78 Z M 559.01 452.48 C 558.92 452.78 558.81 452.99 558.67 453.12 C 558.53 453.24 558.36 453.34 558.15 453.39 C 557.99 453.43 557.73 453.45 557.36 453.45 L 556.4 453.45 L 556.4 449.09 L 556.98 449.09 C 557.51 449.09 557.86 449.11 558.04 449.16 C 558.29 449.21 558.49 449.31 558.64 449.47 C 558.8 449.62 558.92 449.83 559.01 450.1 C 559.1 450.38 559.14 450.77 559.14 451.28 C 559.14 451.79 559.1 452.19 559.01 452.48 Z M 574.49 445 L 552.98 445 C 551.34 445 550 446.37 550 448.05 L 550 457.55 L 577.5 457.55 L 577.5 448.05 C 577.5 446.37 576.13 445 574.49 445 Z M 576.23 456.21 L 551.27 456.21 L 551.27 448.05 C 551.27 447.07 552.02 446.3 552.98 446.3 L 574.49 446.3 C 575.44 446.3 576.23 447.07 576.23 448.05 L 576.23 456.21 L 576.23 456.21 Z M 550 487.71 L 550 491.95 C 550 493.63 551.34 495 552.98 495 L 574.49 495 C 576.13 495 577.5 493.63 577.5 491.95 L 577.5 487.71 L 550 487.71 Z M 576.23 491.95 C 576.23 492.93 575.44 493.7 574.49 493.7 L 552.98 493.7 C 552.02 493.7 551.27 492.93 551.27 491.95 L 551.27 489.07 L 576.23 489.07 L 576.23 491.95 Z M 563.77 462.07 C 562.15 462.07 560.82 463.43 560.82 465.09 C 560.82 466.75 562.15 468.11 563.77 468.11 C 565.39 468.11 566.71 466.75 566.71 465.09 C 566.71 463.43 565.39 462.07 563.77 462.07 L 563.77 462.07 Z M 563.77 467.2 C 562.63 467.2 561.71 466.26 561.71 465.09 C 561.71 464.06 562.43 463.21 563.38 463.02 L 563.38 465.15 C 563.38 465.37 563.55 465.55 563.76 465.55 C 563.97 465.56 564.14 465.38 564.15 465.17 L 564.15 463.02 C 565.1 463.21 565.82 464.06 565.82 465.09 C 565.82 466.26 564.9 467.2 563.77 467.2 Z M 550 479.68 L 550 486.46 L 577.5 486.46 L 577.5 479.68 L 550 479.68 Z M 576.23 485.16 L 551.27 485.16 L 551.27 480.98 L 576.23 480.98 L 576.23 485.16 Z M 550 458.53 L 550 478.29 L 577.5 478.29 L 577.5 458.53 L 550 458.53 Z M 576.23 476.98 L 551.27 476.98 L 551.27 459.83 L 576.23 459.83 L 576.23 476.98 Z" fill="#005073" style="fill: light-dark(rgb(0, 80, 115), rgb(124, 193, 223));" stroke="none" pointer-events="all"/><rect x="551.27" y="480.98" width="24.96" height="4.18" fill="#fafafa" style="fill: light-dark(rgb(250, 250, 250), rgb(22, 22, 22));" stroke="none" pointer-events="all"/><path d="M 576.23 489.07 L 576.23 491.95 C 576.23 492.93 575.44 493.7 574.49 493.7 L 552.98 493.7 C 552.02 493.7 551.27 492.93 551.27 491.95 L 551.27 489.07 L 576.23 489.07 Z" fill="#fafafa" style="fill: light-dark(rgb(250, 250, 250), rgb(22, 22, 22));" stroke="none" pointer-events="all"/></g></g><g data-cell-id="ePXKWvj2PJpGyOa-WNo2-28"><g transform="translate(0.5,0.5)"><path d="M 565 243 L 565 220 L 660 220 L 660 243" fill="#ffffff" style="fill: light-dark(#ffffff, var(--ge-dark-color, #121212)); stroke: light-dark(rgb(0, 0, 0), rgb(255, 255, 255));" stroke="#000000" stroke-miterlimit="10" pointer-events="all"/><path d="M 565 243 L 565 360 L 660 360 L 660 243" fill="none" stroke="#000000" style="stroke: light-dark(rgb(0, 0, 0), rgb(255, 255, 255));" stroke-miterlimit="10" pointer-events="none"/><path d="M 565 243 L 660 243" fill="none" stroke="#000000" style="stroke: light-dark(rgb(0, 0, 0), rgb(255, 255, 255));" stroke-miterlimit="10" pointer-events="none"/></g><g><g><switch><foreignObject style="overflow: visible; text-align: left;" pointer-events="none" width="100%" height="100%" requiredFeatures="http://www.w3.org/TR/SVG11/feature#Extensibility"><div xmlns="http://www.w3.org/1999/xhtml" style="display: flex; align-items: unsafe center; justify-content: unsafe center; width: 93px; height: 1px; padding-top: 232px; margin-left: 566px;"><div style="box-sizing: border-box; font-size: 0; text-align: center; color: #000000; "><div style="display: inline-block; font-size: 12px; font-family: Helvetica; color: light-dark(#000000, #ffffff); line-height: 1.2; pointer-events: all; font-weight: bold; white-space: normal; word-wrap: normal; ">bastion</div></div></div></foreignObject><text x="613" y="235" fill="light-dark(#000000, #ffffff)" font-family="Helvetica" font-size="12px" text-anchor="middle" font-weight="bold">bastion</text></switch></g></g></g></g></g></g><switch><g requiredFeatures="http://www.w3.org/TR/SVG11/feature#Extensibility"/><a transform="translate(0,-5)" xlink:href="https://www.drawio.com/doc/faq/svg-export-text-problems" target="_blank"><text text-anchor="middle" font-size="10px" x="50%" y="100%">Text is not SVG - cannot display</text></a></switch></svg>